<svg width="70" height="70" viewBox="0 0 70 70" fill="none" xmlns="http://www.w3.org/2000/svg">
<path d="M20.5827 7.05374L23.9864 6.02777C27.8437 4.86507 31.9648 6.74407 33.6168 10.4186L36.2468 16.2686C37.6547 19.4006 36.9127 23.0815 34.4014 25.4234L30.043 29.4877C29.9156 29.6065 29.8348 29.7669 29.8155 29.9401C29.686 31.0983 30.4715 33.3541 32.2804 36.4875C33.5961 38.7662 34.7867 40.364 35.8002 41.2629C36.5064 41.8891 36.8952 42.0245 37.0605 41.9752L42.9242 40.1826C46.2072 39.179 49.765 40.3757 51.7737 43.1596L55.509 48.3367C57.8602 51.5952 57.4373 56.0907 54.52 58.8536L51.9347 61.3019C49.1452 63.9438 45.1738 64.9282 41.4735 63.8954C33.4407 61.6533 26.2385 54.8744 19.7872 43.7007C13.3269 32.5112 11.0601 22.8731 13.1498 14.7887C14.1061 11.089 16.9239 8.15659 20.5827 7.05374ZM21.8453 11.2426C19.6501 11.9043 17.9593 13.6637 17.3856 15.8836C15.6278 22.6838 17.637 31.2264 23.5761 41.5132C29.5072 51.786 35.8915 57.7952 42.6495 59.6814C44.8699 60.3012 47.2525 59.7105 48.9264 58.1253L51.5115 55.6771C52.8377 54.4212 53.0299 52.3777 51.9612 50.8967L48.2258 45.7196C47.3126 44.4543 45.6953 43.9101 44.2032 44.3665L38.3252 46.1635C34.9136 47.1805 31.817 44.4345 28.4917 38.675C26.2508 34.7937 25.2063 31.7934 25.4676 29.4545C25.6029 28.2427 26.1675 27.1195 27.0592 26.288L31.4177 22.2237C32.5592 21.1592 32.8964 19.4861 32.2565 18.0625L29.6265 12.2124C28.8757 10.5422 27.0024 9.6881 25.249 10.2166L21.8453 11.2426Z" fill="#7D0A0A"/>
</svg>
