<svg width="46" height="60" viewBox="0 0 46 60" fill="none" xmlns="http://www.w3.org/2000/svg">
<path d="M8.58266 2.05386L11.9864 1.02789C15.8437 -0.134808 19.9648 1.7442 21.6168 5.4187L24.2468 11.2687C25.6547 14.4007 24.9127 18.0816 22.4014 20.4235L18.043 24.4879C17.9156 24.6066 17.8348 24.767 17.8155 24.9402C17.686 26.0985 18.4715 28.3542 20.2804 31.4876C21.5961 33.7664 22.7867 35.3641 23.8002 36.263C24.5064 36.8892 24.8952 37.0246 25.0605 36.9753L30.9242 35.1827C34.2072 34.1791 37.765 35.3758 39.7737 38.1597L43.509 43.3368C45.8602 46.5953 45.4373 51.0908 42.52 53.8537L39.9347 56.302C37.1452 58.9439 33.1738 59.9283 29.4735 58.8955C21.4407 56.6535 14.2385 49.8745 7.7872 38.7008C1.32692 27.5113 -0.939879 17.8732 1.14977 9.78883C2.10605 6.0891 4.92393 3.15671 8.58266 2.05386ZM9.84528 6.24269C7.65005 6.90439 5.95932 8.66384 5.38555 10.8837C3.62783 17.6839 5.637 26.2265 11.5761 36.5133C17.5072 46.7861 23.8915 52.7953 30.6495 54.6815C32.8699 55.3013 35.2525 54.7107 36.9264 53.1255L39.5115 50.6772C40.8377 49.4213 41.0299 47.3779 39.9612 45.8968L36.2258 40.7197C35.3126 39.4545 33.6953 38.9102 32.2032 39.3667L26.3252 41.1636C22.9136 42.1807 19.817 39.4346 16.4917 33.6751C14.2508 29.7939 13.2063 26.7935 13.4676 24.4546C13.6029 23.2428 14.1675 22.1196 15.0592 21.2881L19.4177 17.2239C20.5592 16.1593 20.8964 14.4862 20.2565 13.0626L17.6265 7.21257C16.8757 5.54234 15.0024 4.68822 13.249 5.21672L9.84528 6.24269Z" fill="#EAD196"/>
</svg>
