<svg width="70" height="70" viewBox="0 0 70 70" fill="none" xmlns="http://www.w3.org/2000/svg">
<path d="M17.0414 13.323C26.9593 3.40518 43.0395 3.40518 52.9573 13.323C62.8751 23.2409 62.8751 39.3211 52.9573 49.2389L49.4952 52.6628C46.9434 55.167 43.6327 58.387 39.5613 62.3231C37.0174 64.783 32.9813 64.7827 30.4377 62.3225L20.2552 52.4178C18.9755 51.1613 17.9043 50.1017 17.0414 49.2389C7.12356 39.3211 7.12356 23.2409 17.0414 13.323ZM49.8636 16.4166C41.6543 8.20729 28.3443 8.20729 20.135 16.4166C11.9257 24.6259 11.9257 37.9359 20.135 46.1452L24.4723 50.4254C26.8608 52.7628 29.8634 55.6806 33.4792 59.1777C34.3271 59.9976 35.6722 59.9979 36.5204 59.178L46.4222 49.5486C47.7898 48.2061 48.9372 47.0715 49.8636 46.1452C58.0728 37.9359 58.0728 24.6259 49.8636 16.4166ZM34.9994 23.3291C39.8343 23.3291 43.7537 27.2486 43.7537 32.0837C43.7537 36.9186 39.8343 40.838 34.9994 40.838C30.1644 40.838 26.2448 36.9186 26.2448 32.0837C26.2448 27.2486 30.1644 23.3291 34.9994 23.3291ZM34.9994 27.7041C32.5806 27.7041 30.6197 29.6649 30.6197 32.0837C30.6197 34.5024 32.5806 36.463 34.9994 36.463C37.4182 36.463 39.3787 34.5024 39.3787 32.0837C39.3787 29.6649 37.4182 27.7041 34.9994 27.7041Z" fill="#7D0A0A"/>
</svg>
