<svg width="52" height="60" viewBox="0 0 52 60" fill="none" xmlns="http://www.w3.org/2000/svg">
<path d="M8.04142 8.32292C17.9593 -1.59494 34.0395 -1.59494 43.9573 8.32292C53.8751 18.2408 53.8751 34.3209 43.9573 44.2388L40.4952 47.6627C37.9434 50.1669 34.6327 53.3869 30.5613 57.3229C28.0174 59.7829 23.9813 59.7826 21.4377 57.3224L11.2552 47.4177C9.9755 46.1612 8.90429 45.1015 8.04142 44.2388C-1.87644 34.3209 -1.87644 18.2408 8.04142 8.32292ZM40.8636 11.4165C32.6543 3.20717 19.3443 3.20717 11.135 11.4165C2.92568 19.6258 2.92568 32.9358 11.135 41.1451L15.4723 45.4253C17.8608 47.7627 20.8634 50.6805 24.4792 54.1776C25.3271 54.9975 26.6722 54.9978 27.5204 54.1779L37.4222 44.5485C38.7898 43.206 39.9372 42.0714 40.8636 41.1451C49.0728 32.9358 49.0728 19.6258 40.8636 11.4165ZM25.9994 18.329C30.8343 18.329 34.7537 22.2485 34.7537 27.0835C34.7537 31.9185 30.8343 35.8379 25.9994 35.8379C21.1644 35.8379 17.2448 31.9185 17.2448 27.0835C17.2448 22.2485 21.1644 18.329 25.9994 18.329ZM25.9994 22.704C23.5806 22.704 21.6197 24.6647 21.6197 27.0835C21.6197 29.5023 23.5806 31.4629 25.9994 31.4629C28.4182 31.4629 30.3787 29.5023 30.3787 27.0835C30.3787 24.6647 28.4182 22.704 25.9994 22.704Z" fill="#EAD196"/>
</svg>
