<svg width="70" height="70" viewBox="0 0 70 70" fill="none" xmlns="http://www.w3.org/2000/svg">
<path d="M15.3124 11.6666H54.6874C59.742 11.6666 63.8726 15.6229 64.1517 20.6079L64.1666 21.1458V48.8541C64.1666 53.9087 60.2101 58.0393 55.2253 58.3184L54.6874 58.3333H15.3124C10.2577 58.3333 6.12711 54.3768 5.84824 49.392L5.83325 48.8541V21.1458C5.83325 16.0911 9.78956 11.9605 14.7745 11.6816L15.3124 11.6666ZM59.7916 27.3379L36.0187 39.8524C35.4721 40.14 34.834 40.1811 34.2614 39.9758L33.9811 39.8524L10.2083 27.3408V48.8541C10.2083 51.5322 12.2707 53.7285 14.8938 53.9414L15.3124 53.9583H54.6874C57.3655 53.9583 59.5617 51.8959 59.7747 49.2727L59.7916 48.8541V27.3379ZM54.6874 16.0416H15.3124C12.6344 16.0416 10.4381 18.104 10.2252 20.7272L10.2083 21.1458V22.397L34.9999 35.4448L59.7916 22.3941V21.1458C59.7916 18.4678 57.7292 16.2715 55.106 16.0585L54.6874 16.0416Z" fill="#7D0A0A"/>
</svg>
