<svg width="60" height="48" viewBox="0 0 60 48" fill="none" xmlns="http://www.w3.org/2000/svg">
<path d="M10.3124 0.666748H49.6874C54.742 0.666748 58.8726 4.62306 59.1517 9.60802L59.1666 10.1459V37.8542C59.1666 42.9088 55.2101 47.0394 50.2253 47.3185L49.6874 47.3334H10.3124C5.25775 47.3334 1.12711 43.377 0.848244 38.3921L0.833252 37.8542V10.1459C0.833252 5.09124 4.78956 0.960602 9.77453 0.681739L10.3124 0.666748ZM54.7916 16.338L31.0187 28.8525C30.4721 29.1401 29.834 29.1812 29.2614 28.9759L28.9811 28.8525L5.20825 16.3409V37.8542C5.20825 40.5323 7.27066 42.7286 9.89379 42.9415L10.3124 42.9584H49.6874C52.3655 42.9584 54.5617 40.896 54.7747 38.2728L54.7916 37.8542V16.338ZM49.6874 5.04175H10.3124C7.63442 5.04175 5.43811 7.10415 5.22517 9.72729L5.20825 10.1459V11.3972L29.9999 24.4449L54.7916 11.3942V10.1459C54.7916 7.46792 52.7292 5.27161 50.106 5.05866L49.6874 5.04175Z" fill="#EAD196"/>
</svg>
